<mxfile host="Electron" modified="2023-12-23T00:55:12.790Z" agent="Mozilla/5.0 (Windows NT 10.0; Win64; x64) AppleWebKit/537.36 (KHTML, like Gecko) draw.io/22.1.11 Chrome/114.0.5735.289 Electron/25.9.8 Safari/537.36" etag="n6gjenqETLcKDNZPkxmo" version="22.1.11" type="device">
  <diagram name="Страница — 1" id="HQObV26VT7T-BoyazQHi">
    <mxGraphModel dx="2074" dy="1245" grid="1" gridSize="10" guides="1" tooltips="1" connect="1" arrows="1" fold="1" page="1" pageScale="1" pageWidth="827" pageHeight="1169" math="0" shadow="0">
      <root>
        <mxCell id="0" />
        <mxCell id="1" parent="0" />
        <mxCell id="CoVJXGUHYpS7ImFzCOAr-8" value="True" style="edgeStyle=orthogonalEdgeStyle;rounded=0;orthogonalLoop=1;jettySize=auto;html=1;entryX=0;entryY=0.5;entryDx=0;entryDy=0;" edge="1" parent="1" source="CoVJXGUHYpS7ImFzCOAr-2" target="CoVJXGUHYpS7ImFzCOAr-7">
          <mxGeometry relative="1" as="geometry" />
        </mxCell>
        <mxCell id="CoVJXGUHYpS7ImFzCOAr-10" style="edgeStyle=orthogonalEdgeStyle;rounded=0;orthogonalLoop=1;jettySize=auto;html=1;entryX=0.5;entryY=0;entryDx=0;entryDy=0;" edge="1" parent="1" source="CoVJXGUHYpS7ImFzCOAr-2" target="CoVJXGUHYpS7ImFzCOAr-9">
          <mxGeometry relative="1" as="geometry" />
        </mxCell>
        <mxCell id="CoVJXGUHYpS7ImFzCOAr-2" value="!node" style="rhombus;whiteSpace=wrap;html=1;" vertex="1" parent="1">
          <mxGeometry x="374" y="100" width="80" height="80" as="geometry" />
        </mxCell>
        <mxCell id="CoVJXGUHYpS7ImFzCOAr-6" style="edgeStyle=orthogonalEdgeStyle;rounded=0;orthogonalLoop=1;jettySize=auto;html=1;entryX=0.5;entryY=0;entryDx=0;entryDy=0;" edge="1" parent="1" source="CoVJXGUHYpS7ImFzCOAr-4" target="CoVJXGUHYpS7ImFzCOAr-2">
          <mxGeometry relative="1" as="geometry" />
        </mxCell>
        <mxCell id="CoVJXGUHYpS7ImFzCOAr-4" value="Начало&lt;br&gt;_getStudentByNumber" style="ellipse;whiteSpace=wrap;html=1;" vertex="1" parent="1">
          <mxGeometry x="354" width="120" height="80" as="geometry" />
        </mxCell>
        <mxCell id="CoVJXGUHYpS7ImFzCOAr-23" style="edgeStyle=orthogonalEdgeStyle;rounded=0;orthogonalLoop=1;jettySize=auto;html=1;" edge="1" parent="1" source="CoVJXGUHYpS7ImFzCOAr-7">
          <mxGeometry relative="1" as="geometry">
            <mxPoint x="660" y="240" as="targetPoint" />
          </mxGeometry>
        </mxCell>
        <mxCell id="CoVJXGUHYpS7ImFzCOAr-7" value="return NULL" style="rounded=0;whiteSpace=wrap;html=1;" vertex="1" parent="1">
          <mxGeometry x="500" y="110" width="120" height="60" as="geometry" />
        </mxCell>
        <mxCell id="CoVJXGUHYpS7ImFzCOAr-12" value="True" style="edgeStyle=orthogonalEdgeStyle;rounded=0;orthogonalLoop=1;jettySize=auto;html=1;entryX=0;entryY=0.5;entryDx=0;entryDy=0;" edge="1" parent="1" source="CoVJXGUHYpS7ImFzCOAr-9" target="CoVJXGUHYpS7ImFzCOAr-11">
          <mxGeometry relative="1" as="geometry" />
        </mxCell>
        <mxCell id="CoVJXGUHYpS7ImFzCOAr-14" style="edgeStyle=orthogonalEdgeStyle;rounded=0;orthogonalLoop=1;jettySize=auto;html=1;entryX=0.5;entryY=0;entryDx=0;entryDy=0;" edge="1" parent="1" source="CoVJXGUHYpS7ImFzCOAr-9" target="CoVJXGUHYpS7ImFzCOAr-13">
          <mxGeometry relative="1" as="geometry" />
        </mxCell>
        <mxCell id="CoVJXGUHYpS7ImFzCOAr-9" value="&lt;div style=&quot;line-height: 19px;&quot;&gt;&lt;font style=&quot;background-color: rgb(255, 255, 255); font-size: 12px;&quot; face=&quot;Helvetica&quot;&gt;node-&amp;gt;student.number &amp;lt; number&lt;/font&gt;&lt;/div&gt;" style="rhombus;whiteSpace=wrap;html=1;" vertex="1" parent="1">
          <mxGeometry x="374" y="200" width="80" height="80" as="geometry" />
        </mxCell>
        <mxCell id="CoVJXGUHYpS7ImFzCOAr-22" style="edgeStyle=orthogonalEdgeStyle;rounded=0;orthogonalLoop=1;jettySize=auto;html=1;" edge="1" parent="1" source="CoVJXGUHYpS7ImFzCOAr-11">
          <mxGeometry relative="1" as="geometry">
            <mxPoint x="660" y="340" as="targetPoint" />
          </mxGeometry>
        </mxCell>
        <mxCell id="CoVJXGUHYpS7ImFzCOAr-11" value="&lt;div style=&quot;line-height: 19px;&quot;&gt;&lt;font style=&quot;background-color: rgb(255, 255, 255); font-size: 12px;&quot; face=&quot;Helvetica&quot;&gt;return _getStudentByNumber(node-&amp;gt;right, number)&lt;/font&gt;&lt;/div&gt;" style="rounded=0;whiteSpace=wrap;html=1;" vertex="1" parent="1">
          <mxGeometry x="500" y="210" width="120" height="60" as="geometry" />
        </mxCell>
        <mxCell id="CoVJXGUHYpS7ImFzCOAr-16" value="True" style="edgeStyle=orthogonalEdgeStyle;rounded=0;orthogonalLoop=1;jettySize=auto;html=1;entryX=0;entryY=0.5;entryDx=0;entryDy=0;" edge="1" parent="1" source="CoVJXGUHYpS7ImFzCOAr-13" target="CoVJXGUHYpS7ImFzCOAr-15">
          <mxGeometry relative="1" as="geometry" />
        </mxCell>
        <mxCell id="CoVJXGUHYpS7ImFzCOAr-18" value="False" style="edgeStyle=orthogonalEdgeStyle;rounded=0;orthogonalLoop=1;jettySize=auto;html=1;entryX=0.5;entryY=0;entryDx=0;entryDy=0;" edge="1" parent="1" source="CoVJXGUHYpS7ImFzCOAr-13" target="CoVJXGUHYpS7ImFzCOAr-17">
          <mxGeometry relative="1" as="geometry" />
        </mxCell>
        <mxCell id="CoVJXGUHYpS7ImFzCOAr-13" value="&lt;div style=&quot;line-height: 19px;&quot;&gt;&lt;span style=&quot;background-color: rgb(255, 255, 255);&quot;&gt;node-&amp;gt;student.number &amp;gt; number&lt;/span&gt;&lt;/div&gt;" style="rhombus;whiteSpace=wrap;html=1;" vertex="1" parent="1">
          <mxGeometry x="374" y="300" width="80" height="80" as="geometry" />
        </mxCell>
        <mxCell id="CoVJXGUHYpS7ImFzCOAr-21" style="edgeStyle=orthogonalEdgeStyle;rounded=0;orthogonalLoop=1;jettySize=auto;html=1;entryX=1;entryY=0.5;entryDx=0;entryDy=0;" edge="1" parent="1" source="CoVJXGUHYpS7ImFzCOAr-15" target="CoVJXGUHYpS7ImFzCOAr-19">
          <mxGeometry relative="1" as="geometry">
            <Array as="points">
              <mxPoint x="660" y="340" />
              <mxPoint x="660" y="545" />
            </Array>
          </mxGeometry>
        </mxCell>
        <mxCell id="CoVJXGUHYpS7ImFzCOAr-15" value="&lt;div style=&quot;font-size: 14px; line-height: 19px;&quot;&gt;&lt;span style=&quot;background-color: rgb(255, 255, 255); font-size: 12px;&quot;&gt;&lt;font style=&quot;font-size: 12px;&quot; face=&quot;Helvetica&quot;&gt;return _getStudentByNumber(node-&amp;gt;left, number)&lt;/font&gt;&lt;/span&gt;&lt;/div&gt;" style="rounded=0;whiteSpace=wrap;html=1;" vertex="1" parent="1">
          <mxGeometry x="500" y="310" width="120" height="60" as="geometry" />
        </mxCell>
        <mxCell id="CoVJXGUHYpS7ImFzCOAr-20" style="edgeStyle=orthogonalEdgeStyle;rounded=0;orthogonalLoop=1;jettySize=auto;html=1;entryX=0.5;entryY=0;entryDx=0;entryDy=0;" edge="1" parent="1" source="CoVJXGUHYpS7ImFzCOAr-17" target="CoVJXGUHYpS7ImFzCOAr-19">
          <mxGeometry relative="1" as="geometry" />
        </mxCell>
        <mxCell id="CoVJXGUHYpS7ImFzCOAr-17" value="&lt;div style=&quot;font-size: 14px; line-height: 19px;&quot;&gt;&lt;font style=&quot;background-color: rgb(255, 255, 255);&quot; face=&quot;Helvetica&quot;&gt;return &amp;amp;node-&amp;gt;student&lt;/font&gt;&lt;/div&gt;" style="rounded=0;whiteSpace=wrap;html=1;" vertex="1" parent="1">
          <mxGeometry x="354" y="420" width="120" height="60" as="geometry" />
        </mxCell>
        <mxCell id="CoVJXGUHYpS7ImFzCOAr-19" value="Конец" style="ellipse;whiteSpace=wrap;html=1;" vertex="1" parent="1">
          <mxGeometry x="354" y="505" width="120" height="80" as="geometry" />
        </mxCell>
      </root>
    </mxGraphModel>
  </diagram>
</mxfile>
